<?xml version="1.0" encoding="UTF-8" standalone="no"?>
<svg
   xmlns:dc="http://purl.org/dc/elements/1.1/"
   xmlns:cc="http://creativecommons.org/ns#"
   xmlns:rdf="http://www.w3.org/1999/02/22-rdf-syntax-ns#"
   xmlns:svg="http://www.w3.org/2000/svg"
   xmlns="http://www.w3.org/2000/svg"
   viewBox="0 0 604.71997 604.71997"
   height="604.71997"
   width="604.71997"
   xml:space="preserve"
   id="svg2"
   version="1.1"><metadata
     id="metadata8"><rdf:RDF><cc:Work
         rdf:about=""><dc:format>image/svg+xml</dc:format><dc:type
           rdf:resource="http://purl.org/dc/dcmitype/StillImage" /></cc:Work></rdf:RDF></metadata><defs
     id="defs6" /><g
     transform="matrix(1.3333333,0,0,-1.3333333,0,604.72)"
     id="g10"><g
       transform="scale(0.1)"
       id="g12"><path
         id="path14"
         style="fill:#100f0d;fill-opacity:1;fill-rule:nonzero;stroke:none"
         d="m 2901.39,3302.27 c -749.35,227.92 -1595.76,43.54 -2187.949,-553.36 l 282.172,-284.42 c 427.837,431.24 1017.957,599.34 1572.337,504.34 z m -974.6,-1776.36 338.59,-341.29 423.26,426.62 c -137.76,138.86 -326.35,195.72 -505.8,170.72 z m 262.36,1064.12 c -331.65,-18.16 -658.11,-154.68 -911.36,-409.95 l 249.71,-251.7 z m 360.35,-441.4 c 154.26,-46 299.63,-130.33 421.31,-252.97 l 282.17,284.42 C 3135.41,2298.59 3002,2391.4 2859.68,2458.8 Z m 607.49,607.48 c 135.26,-78.07 262.65,-175.19 378.16,-291.62 l 282.17,284.42 c -114.17,115.09 -237.87,214.68 -368.43,299.11 l -291.9,-291.91" /><path
         id="path16"
         style="fill:#231f20;fill-opacity:1;fill-rule:nonzero;stroke:none"
         d="M 614.09,814.527 814.527,614.09 3921.34,3720.91 3720.91,3921.34 614.09,814.527" /><path
         id="path18"
         style="fill:#231f20;fill-opacity:1;fill-rule:nonzero;stroke:none"
         d="m 4535.43,2267.72 c 0,1252.42 -1015.29,2267.72 -2267.72,2267.72 C 1015.29,4535.44 0,3520.14 0,2267.72 0,1015.3 1015.29,0.00390625 2267.71,0.00390625 3520.14,0.00390625 4535.43,1015.3 4535.43,2267.72 Z m -277.75,0 c 0,-1099.03 -890.93,-1989.966 -1989.97,-1989.966 -1099.02,0 -1989.964,890.936 -1989.964,1989.966 0,1099.03 890.944,1989.97 1989.964,1989.97 1099.04,0 1989.97,-890.94 1989.97,-1989.97" /></g></g></svg>